Coordinates
version=1
nRows=8
nColumns=63
inDegrees=yes

Units are S.I. units (second, meters, Newtons, ...)
If the header above contains a line with 'inDegrees', this indicates whether rotational values are in degrees (yes) or radians (no).

endheader
time	pelvis_tilt	pelvis_list	pelvis_rotation	pelvis_tx	pelvis_ty	pelvis_tz	hip_flexion_r	hip_adduction_r	hip_rotation_r	knee_angle_r	knee_angle_r_beta	ankle_angle_r	subtalar_angle_r	mtp_angle_r	hip_flexion_l	hip_adduction_l	hip_rotation_l	knee_angle_l	knee_angle_l_beta	ankle_angle_l	subtalar_angle_l	mtp_angle_l	L5_S1_Flex_Ext	L5_S1_Lat_Bending	L5_S1_axial_rotation	L4_L5_Flex_Ext	L4_L5_Lat_Bending	L4_L5_axial_rotation	L3_L4_Flex_Ext	L3_L4_Lat_Bending	L3_L4_axial_rotation	L2_L3_Flex_Ext	L2_L3_Lat_Bending	L2_L3_axial_rotation	L1_L2_Flex_Ext	L1_L2_Lat_Bending	L1_L2_axial_rotation	L1_T12_Flex_Ext	L1_T12_Lat_Bending	L1_T12_axial_rotation	Abs_r3	Abs_r2	Abs_r1	Abs_t1	Abs_t2	neck_flexion	neck_bending	neck_rotation	arm_flex_r	arm_add_r	arm_rot_r	elbow_flex_r	pro_sup_r	wrist_flex_r	wrist_dev_r	arm_flex_l	arm_add_l	arm_rot_l	elbow_flex_l	pro_sup_l	wrist_flex_l	wrist_dev_l
4.150000	-0.820992	-5.112871	90.483830	0.041572	0.836212	0.694361	8.994172	-2.228936	7.509326	16.007005	0.279375	39.077426	-0.460257	0.000000	1.526171	2.980546	6.353780	1.324672	0.023120	31.353440	-13.006368	0.000000	0.006375	-0.450039	2.380260	0.011840	-0.598552	2.529027	0.010474	-1.094225	2.529027	0.007286	-1.094225	2.082728	0.005920	-0.917720	1.933962	0.003643	-0.697111	1.785195	0.045538	-5.090933	13.238294	0.000000	0.000000	28.221460	-1.055377	-19.400791	-7.243809	-8.141362	-12.974579	91.166386	86.570680	-8.080268	13.551390	12.040123	-13.856563	114.547042	11.386033	8.856364	-6.470103	-19.847977
4.166667	-0.632040	-5.202323	90.629356	0.040648	0.835894	0.695543	9.164934	-2.189688	6.714669	16.052202	0.280164	39.227411	0.430399	0.000000	1.768363	2.822645	6.564337	1.430414	0.024965	31.414526	-13.039499	0.000000	0.004535	-0.400844	2.330156	0.008421	-0.533122	2.475790	0.007450	-0.974612	2.475790	0.005183	-0.974612	2.038886	0.004211	-0.817401	1.893251	0.002591	-0.620907	1.747617	0.032391	-4.534426	12.959626	0.000000	0.000000	28.179362	-1.379311	-18.697308	-7.641843	-8.675709	-11.318801	86.396980	86.423987	-7.953986	12.340339	11.983897	-13.418031	115.700798	10.981267	8.946295	-6.883333	-19.916195
4.183333	-0.459905	-5.284970	90.677639	0.039918	0.835550	0.696778	9.341895	-2.151929	5.995121	16.086045	0.280754	39.385841	1.323904	0.000000	2.024334	2.677761	6.782714	1.559678	0.027222	31.521369	-13.171771	0.000000	0.002503	-0.353620	2.292542	0.004648	-0.470314	2.435825	0.004111	-0.859791	2.435825	0.002860	-0.859791	2.005974	0.002324	-0.721101	1.862690	0.001430	-0.547757	1.719406	0.017876	-4.000218	12.750428	0.000000	0.000000	28.162725	-1.745717	-17.970927	-7.811351	-9.239255	-9.905546	81.780369	86.463551	-7.492114	11.484013	11.921503	-12.982777	117.154925	10.490463	8.880460	-7.362379	-20.012241
4.200000	-0.303459	-5.333122	90.657164	0.039343	0.835214	0.697978	9.465177	-2.114045	5.363320	16.066149	0.280407	39.531617	2.164678	0.000000	2.252420	2.545182	6.960842	1.698533	0.029645	31.672733	-13.307436	0.000000	-0.002655	-0.308254	2.255020	-0.004931	-0.409977	2.395959	-0.004362	-0.749488	2.395959	-0.003034	-0.749488	1.973142	-0.002465	-0.628591	1.832204	-0.001517	-0.477485	1.691265	-0.018965	-3.487027	12.541744	0.000000	0.000000	28.164961	-2.066561	-17.127308	-7.758739	-9.852607	-8.435161	77.248800	86.483167	-6.940750	10.723278	11.837219	-12.587037	118.590528	9.984749	8.721489	-7.878810	-20.071946
4.216667	-0.166732	-5.359213	90.557957	0.038945	0.834851	0.699079	9.546432	-2.077788	4.833522	15.999616	0.279246	39.665959	2.947808	0.000000	2.457514	2.428464	7.027829	1.840396	0.032121	31.878995	-13.376850	0.000000	-0.008429	-0.265923	2.225134	-0.015654	-0.353678	2.364204	-0.013848	-0.646566	2.364204	-0.009634	-0.646566	1.946992	-0.007827	-0.542271	1.807921	-0.004816	-0.411915	1.668850	-0.060209	-3.008179	12.375526	0.000000	0.000000	28.174778	-2.372294	-16.235362	-7.564015	-10.405518	-7.197376	72.836413	86.827420	-6.385263	10.162889	11.741538	-12.264813	119.910919	9.526307	8.452210	-8.361468	-20.091070
4.233333	-0.057080	-5.352237	90.428727	0.038659	0.834458	0.699996	9.547787	-2.052282	4.400117	15.862129	0.276846	39.776089	3.629767	0.000000	2.616495	2.336867	7.078473	1.968747	0.034361	32.116831	-13.442912	0.000000	-0.015106	-0.228036	2.195187	-0.028053	-0.303288	2.332386	-0.024817	-0.554448	2.332386	-0.017264	-0.554448	1.920788	-0.014027	-0.465012	1.783589	-0.008631	-0.353228	1.646390	-0.107899	-2.579593	12.208970	0.000000	0.000000	28.186822	-2.584599	-15.264810	-7.230549	-10.895542	-6.054694	68.508805	87.177593	-5.896140	9.759209	11.629257	-12.035924	121.050203	9.148689	8.147425	-8.856828	-19.999520
4.250000	0.029977	-5.307032	90.259414	0.038498	0.834011	0.700692	9.462596	-2.025740	4.106603	15.660889	0.273334	39.852367	4.163480	0.000000	2.714379	2.265464	7.096382	2.072123	0.036165	32.388401	-13.505167	0.000000	-0.023001	-0.194488	2.171720	-0.042715	-0.258669	2.307452	-0.037788	-0.472879	2.307452	-0.026287	-0.472879	1.900255	-0.021358	-0.396600	1.764522	-0.013143	-0.301262	1.628790	-0.164291	-2.200090	12.078455	0.000000	0.000000	28.197102	-2.731232	-14.283263	-6.755960	-11.318406	-4.884478	64.260356	87.160477	-5.470451	9.548692	11.499982	-11.894409	122.057865	8.841263	7.759581	-9.340112	-19.780055
4.266667	0.092764	-5.218161	90.091448	0.038400	0.833513	0.701143	9.280183	-2.004240	3.933959	15.405985	0.268885	39.888153	4.546778	0.000000	2.741527	2.216150	7.092697	2.145308	0.037443	32.688860	-13.522810	0.000000	-0.032545	-0.165291	2.141459	-0.060440	-0.219837	2.275301	-0.053469	-0.401888	2.275301	-0.037196	-0.401888	1.873777	-0.030222	-0.337061	1.739936	-0.018596	-0.256035	1.606095	-0.232468	-1.869801	11.910154	0.000000	0.000000	28.205648	-2.744501	-13.200292	-6.154658	-11.736411	-3.534207	60.022545	86.738883	-5.257450	9.206553	11.329655	-11.839420	122.979914	8.587250	7.364991	-9.851793	-19.420209
